<svg width="302" height="88" viewBox="0 0 302 88" fill="none" xmlns="http://www.w3.org/2000/svg">
  <rect width="302" height="88" fill="#EAF7F5"/>
  <g transform="translate(12 8)">
    <path d="M21.2 63.6C18.4 58.7 14.1 53 10.5 47.7C7.2 42.8 2.6 36.3 3.7 33.4C4.4 31.5 6.9 30.9 8.7 32.3C11.1 34.1 15.2 41.3 18.1 44.2C18.1 33 17.5 18.2 20.4 15.9C22.5 14.3 25.9 15.6 26.3 18.4C26.8 21.8 26.6 37.5 26.7 42.4C27.4 32.2 27.2 12 31.2 9.7C33.6 8.3 36.5 10.2 36.6 13.1C36.9 20.3 35.5 34.4 35.8 42.2C37.1 33.9 38.6 17.9 42.7 16.2C45.5 15 48.3 17.4 47.8 20.7C46.9 27.4 44.5 36.2 43.8 43.2C46.9 38.9 49.8 34.4 52.5 31.9C54.8 29.8 58.4 31.7 58 34.9C57.4 39.8 50 50.3 46.2 57.6C43.9 61.9 43.8 66.7 43.8 72H24.3C24.1 68.7 22.8 66.4 21.2 63.6Z" fill="#AFA4E9"/>
    <path d="M48.1 63.7C51.2 58.4 55.8 52.1 59.7 46.5C63.2 41.5 67.3 35.3 66.4 32.6C65.7 30.5 63 29.9 61.2 31.4C58.6 33.5 54.9 39.9 51.6 43.8C51.7 32.6 52.2 17.9 49.5 15.7C47.3 13.9 44.1 15.5 43.7 18.4C43.2 22.1 43.4 37 43.3 42.1C42.8 31.3 43.2 10.4 39.1 8.4C36.5 7.1 33.7 9.1 33.6 12.2C33.3 19.1 34.7 34 34.3 42.1C33 33.2 31.5 17.9 27.5 15.9C24.8 14.6 22 17 22.5 20.2C23.5 27.2 25.8 36.2 26.6 43C23.4 38.6 20.6 34.3 18 31.8C15.5 29.5 12 31.7 12.6 35C13.6 40.4 20.9 50.5 24.7 57.8C27 62.2 27 66.8 27.1 72H45C45.3 68.5 46.4 66.5 48.1 63.7Z" fill="#93D5C9" opacity="0.92"/>
    <path d="M34.6 72C33.6 65.2 30.7 61.6 26.6 56.1C23.4 51.8 15 42.8 16.8 39.3C17.9 37.3 20.7 37.3 22.4 39.2L31.5 49.1V21.4C31.5 18.7 33.6 16.7 36.1 16.7C38.6 16.7 40.5 18.8 40.5 21.5V47.5L47.6 39.8C49.5 37.7 52.8 38.7 53 41.6C53.3 45.8 45.9 53.3 42.4 58.2C39.2 62.6 37.9 67.1 37.9 72H34.6Z" fill="#BBA5EA"/>
  </g>
  <g fill="#59646B">
    <text x="104" y="39" font-family="Georgia, 'Times New Roman', serif" font-size="30" letter-spacing="1.8">CLÍNICA</text>
    <text x="104" y="68" font-family="Georgia, 'Times New Roman', serif" font-size="27" letter-spacing="1.2">ABIRACHID</text>
  </g>
</svg>
